<?xml version="1.0" encoding="UTF-8"?> <!-- Generator: Adobe Illustrator 19.0.0, SVG Export Plug-In . SVG Version: 6.00 Build 0) --> <svg xmlns="http://www.w3.org/2000/svg" xmlns:xlink="http://www.w3.org/1999/xlink" id="layer_1" x="0px" y="0px" viewBox="0 0 122.5 143.3" style="enable-background:new 0 0 122.5 143.3;" xml:space="preserve"> <style type="text/css"> .st0{fill:#58595B;stroke:#000000;stroke-miterlimit:10;} .st1{fill:#414042;stroke:#414042;stroke-miterlimit:10;} .st2{fill:none;stroke:#000000;stroke-width:0.5;stroke-miterlimit:10;} .st3{fill:none;stroke:#000000;stroke-miterlimit:10;} .st4{fill:#414042;} .st5{fill:#6D6E71;} .st6{fill:#8DC63F;stroke:#009444;stroke-miterlimit:10;} .st7{fill:#58595B;stroke:#000000;stroke-width:2;stroke-miterlimit:10;} .st8{fill:none;} .st9{fill:#FFFFFF;stroke:#FFFFFF;stroke-miterlimit:10;} .st10{fill:#D1D3D4;} .st11{fill:#DA1C5C;} .st12{fill:#9E1F63;} .st13{fill:none;stroke:#414042;stroke-miterlimit:10;} .st14{fill:none;stroke:#000000;stroke-width:2;stroke-miterlimit:10;} .st15{fill:#414042;stroke:#414042;stroke-width:0.25;stroke-miterlimit:10;} .st16{fill:#FBB040;stroke:#414042;stroke-width:0.25;stroke-miterlimit:10;} .st17{fill:#F7941E;} .st18{fill:none;stroke:#000000;stroke-width:0.75;stroke-miterlimit:10;} .st19{fill:#414042;stroke:#000000;stroke-width:2;stroke-miterlimit:10;} .st20{fill:#D1D3D4;stroke:#000000;stroke-miterlimit:10;} .st21{fill:#A7A9AC;} .st22{fill:#E6E7E8;} .st23{fill:#F1F2F2;} .st24{stroke:#000000;stroke-miterlimit:10;} .st25{fill:#8DC63F;} .st26{fill:#009444;} .st27{fill:#BDDFB3;} .st28{fill:#B4BD1E;} .st29{fill:#FFF200;} </style> <g> <g> <path class="st0" d="M71.8,121.3c3.4-0.4,7.3-1.6,10.8-1.3c-1.7,6.5-1.1,13.6-2.8,20c-1.5,0.3-3.1,0.1-4.6,0.2 c0.1-1.5-0.9-3.2-1.2-4.7c-0.3-1.5-0.8-3-1.2-4.6c-0.8-3-1.8-5.9-2.6-8.8c1.4,0.2,2.5-0.7,4-0.7"></path> <path class="st1" d="M78.2,120.7c0.5,0,2.6-0.2,2.8,0.3c0.1,0.2-0.2,0.8-0.3,1c-0.2,0.7-0.3,1.3-0.4,2c-0.3,1.5-0.9,2.9-1.3,4.4 c-0.3,1-0.4,1.9-0.7,2.9c-0.3,1.2-0.9,2.4-0.8,3.6c0,0.8,0.2,1.6,0.5,2.4c-1.2-2.7-0.8-6-0.7-8.9c0.1-1.8,0.8-3.3,1-5 c0.1-0.9-0.2-2.5,0.9-2.9c0.6-0.2,1.5,0,2,0.1c-0.2,0.2-0.3,0.5-0.4,0.7c0.2-0.3,0.4-0.9,0.4-0.8"></path> <path class="st2" d="M74.8,137.6c0.7-0.3,2.1-0.1,2.8-0.1c0.8,0,1.9,0,2.7-0.3"></path> <path class="st3" d="M78.5,120.3c-0.7,3.8-1.2,7.7-1.3,11.5c0,0.8-0.4,5.1,0.3,5.5"></path> <path class="st4" d="M74.3,135.5c0,0.2,0.2,1.4,0.4,1.6c0.3,0.3,0.8,0.2,0.9-0.2c0-0.1-0.2-0.6-0.2-0.7c-0.2-0.7-0.4-1.4-0.6-2.2 c-0.3-1.2-0.7-2.4-0.9-3.6c-0.2-1.2-0.6-2.4-0.9-3.7c-0.2-0.8-0.6-1.9,0.2-2.5c0.8-0.6,2.3-0.6,3.3-0.7c0,0.8-0.3,1.9,0,2.7 c1.2-1.4,1.8-3.8,1.5-5.6c-1.4,0.1-2.7,0.2-4.1,0.4c-1,0.2-2.4,0.3-3,1.1c-1,1.2,0.2,3,0.7,4.1c0.8,1.8,1.5,3.8,1.8,5.7 c0.3,1.4,0.6,3.1,1.1,4.4"></path> <path d="M75,137.6c0.4-0.4,1.8-0.1,2.3,0c0.6,0.1,1.1,0.1,1.7,0c0.3,0,0.5-0.1,0.8-0.1c0.4,0,0.4,0,0.4,0.3c0,0.4-0.1,0.7-0.1,1.1 c0,0.3,0,0.7-0.2,1c-0.3-0.1-0.9,0.2-1.2,0.2c-0.3,0.1-0.7,0.1-1,0.1c-0.6,0-1.2,0-1.8,0c-0.3,0-0.3,0-0.4-0.3 c-0.1-0.3-0.2-0.6-0.3-0.9c-0.1-0.4-0.3-1-0.3-1.4c0.2,0,0.4-0.1,0.6,0"></path> <path class="st5" d="M76.5,139.3c-0.3-0.1-0.9-0.3-0.9,0.2c0,0.4,0.4,0.3,0.7,0.3c0.2,0,0.7,0,0.6-0.3c-0.1-0.3-0.6-0.4-0.8-0.3"></path> <path class="st0" d="M53.7,121.2c-3.4-0.4-7.3-1.6-10.8-1.3c1.7,6.5,1.1,13.6,2.8,20c1.5,0.3,3.1,0.1,4.6,0.2 c-0.1-1.5,0.9-3.2,1.2-4.7c0.3-1.5,0.8-3,1.2-4.6c0.8-3,1.8-5.9,2.6-8.8c-1.4,0.2-2.5-0.7-4-0.7"></path> <path class="st1" d="M47.3,120.7c-0.5,0-2.6-0.2-2.8,0.3c-0.1,0.2,0.2,0.8,0.3,1c0.2,0.7,0.3,1.3,0.4,2c0.3,1.5,0.9,2.9,1.3,4.4 c0.3,1,0.4,1.9,0.7,2.9c0.3,1.2,0.9,2.4,0.8,3.6c0,0.8-0.2,1.6-0.5,2.4c1.2-2.7,0.8-6,0.7-8.9c-0.1-1.8-0.8-3.3-1-5 c-0.1-0.9,0.2-2.5-0.9-2.9c-0.6-0.2-1.5,0-2,0.1c0.2,0.2,0.3,0.5,0.4,0.7c-0.2-0.3-0.4-0.9-0.4-0.8"></path> <path class="st2" d="M50.7,137.6c-0.7-0.3-2.1-0.1-2.8-0.1c-0.8,0-1.9,0-2.7-0.3"></path> <path class="st3" d="M47,120.2c0.7,3.8,1.2,7.7,1.3,11.5c0,0.8,0.4,5.1-0.3,5.5"></path> <path class="st4" d="M51.2,135.5c0,0.2-0.2,1.4-0.4,1.6c-0.3,0.3-0.8,0.2-0.9-0.2c0-0.1,0.2-0.6,0.2-0.7c0.2-0.7,0.4-1.4,0.6-2.2 c0.3-1.2,0.7-2.4,0.9-3.6c0.2-1.2,0.6-2.4,0.9-3.7c0.2-0.8,0.6-1.9-0.2-2.5c-0.8-0.6-2.3-0.6-3.3-0.7c0,0.8,0.3,1.9,0,2.7 c-1.2-1.4-1.8-3.8-1.5-5.6c1.4,0.1,2.7,0.2,4.1,0.4c1,0.2,2.4,0.3,3,1.1c1,1.2-0.2,3-0.7,4.1c-0.8,1.8-1.5,3.8-1.8,5.7 c-0.3,1.4-0.6,3.1-1.1,4.4"></path> <path d="M50.5,137.6c-0.4-0.4-1.8-0.1-2.3,0c-0.6,0.1-1.1,0.1-1.7,0c-0.3,0-0.5-0.1-0.8-0.1c-0.4,0-0.4,0-0.4,0.3 c0,0.4,0.1,0.7,0.1,1.1c0,0.3,0,0.7,0.2,1c0.3-0.1,0.9,0.2,1.2,0.2c0.3,0.1,0.7,0.1,1,0.1c0.6,0,1.2,0,1.8,0c0.3,0,0.3,0,0.4-0.3 c0.1-0.3,0.2-0.6,0.3-0.9c0.1-0.4,0.3-1,0.3-1.4c-0.2,0-0.4-0.1-0.6,0"></path> <path class="st5" d="M49,139.3c0.3-0.1,0.9-0.3,0.9,0.2c0,0.4-0.4,0.3-0.7,0.3c-0.2,0-0.7,0-0.6-0.3c0.1-0.3,0.6-0.4,0.8-0.3"></path> <path class="st6" d="M110,104.2c1.9,0.7,3.2,1.3,3.6,3.4c0.2,0.9,0.2,2,0.1,3c-0.1,1.4-0.7,2.5-2.2,2.9c-1.4,0.5-3.1,0.6-4.6,0.2 c-1-0.3-2.8-2-3.1-3c0,0.1,0,0.1,0,0.2"></path> <path class="st7" d="M83.3,92.6c1.4-2.2,6.4-9.5,9.1-7c2.2,2,3,5.6,5.9,6.9c1.6,0.7,2.7,0.7,3.6,2.4c0.7,1.4,0.8,2.6,2,3.7 c1.2,1.1,2.5,1.5,3.5,2.8c1,1.3,1.6,2.1,3.2,2.8c0.6,0.3,1,0.6,1.7,0.7c-1.7,3.3-3.3,7.1-6.3,9.5c-2.5-3.4-6.3-5.5-9.3-8.4 c-1.9-1.8-5.1-3.1-6.5-5.2c-0.8-1.2-0.3-2.3-1.7-3c-1.5-0.7-1.7-0.6-2.8-2c-0.8-1-2.2-1.6-2.2-2.8c0-0.7,1.5-3.2,2-3.5 c0.4-0.2,0.1,0,0.5,0"></path> <path class="st5" d="M93.5,98.2c0-0.6-0.5-1.5-0.6-2.1c-0.1-0.5-0.2-1-0.2-1.5c-0.1-0.7,0.1-1.8,0.5-2.3c0.1,1,0.7,2.1,0.9,3.1 c0.2,1,0.4,1.8,0.8,2.7c0.4,1,1.1,1.7,1.6,2.7c0.5,1,1.4,1.7,2,2.6c-1.9-1.3-3.7-3.1-5-5c-0.7-1-1.4-1.8-1.5-3.1 c-0.1-1.1,0-2.2,0.4-3.2c0-0.1,0.1-0.3,0.1-0.4c-0.1,0.7,0.2,1.3,0.3,1.9c0.1,0.6,0,1.2,0.2,1.8c0-0.1,0-0.1,0-0.2"></path> <path class="st5" d="M103.9,110.1c-1,0.6-0.8,0.9-0.1,1.7c0.4,0.5,1,1,1.4,1.2c-0.5-1.7,1-3.8,2.8-4c0-0.4-0.3-1-0.7-1.2 c0-0.1,0-0.1,0-0.2c-0.4,0.4-4.4,2.2-3.9,2.9"></path> <path class="st3" d="M102.8,111.3c1.4-1.4,2.9-2.6,4.6-3.7"></path> <path class="st8" d="M100.8,119.2c0.1,0,0.1,0,0.1,0.1"></path> <path class="st4" d="M86.2,91.1c-0.8,1.2-1,2.7,0.5,3.5c1.5,0.8,2.6,1.9,3.9,3c1.1,0.9,2,1.9,3,2.9c0.5,0.6,1,1.1,1.8,1.4 c0.7,0.3,1.6,0.4,2.2,0.8c-0.1-0.4-0.7-0.6-1-0.8c-0.4-0.4-0.6-0.9-0.9-1.3c-0.6-0.7-1.2-1.3-1.8-2c-1.1-1.5-1.8-3.9-1.4-5.8 c-0.9,0.7-1.1,1.9-1.8,2.6c-0.6-1.1-0.3-3.3,0-4.5c0.2-1.1,0.9-2.5,2-2.8c-0.3-0.5-0.5-1.6-1-1.9c-0.7-0.4-2.4,1.3-2.8,1.7 c-1.2,1.2-3.5,3.1-3.3,4.9"></path> <path class="st4" d="M98,105.4c-0.8-1.2-1.5-2-2.4-3.1c2,0.7,4.8,0.4,6.6-0.6c-0.6,0.7-1.3,1.5-2,2.1c-0.5,0.4-0.6,0.5-0.3,1.1 c0.2,0.6,0.6,1,1.1,1.4c0.5,0.5,1.3,1.5,2.1,1.4c1,0,1.4-1.4,2.1-1.7c0.1,0.9-0.6,1.9-1.1,2.5c-0.8,0.9-1.5,0.9-2.5,0.1 c-0.9-0.7-1.6-1.7-2.4-2.4c-0.6-0.5-1.7-1.4-1.9-2.2c0,0.1,0.1,0.1,0.2,0.2"></path> <path class="st4" d="M98,94.5c1.4-0.8,2.2-0.6,2.9,0.9c0.5,1,0.7,2,1.2,2.9c0.5,0.9,1.5,1.2,2,2c0.5,0.8-0.1,2.1-0.3,3 c0-0.9-1.3-1.9-1.8-2.6c-0.8-1-1.8-1.7-2.7-2.6c-0.9-0.8-1.6-1.4-2.1-2.5c-0.4-0.8-0.9-1.8-1.4-2.5c0.8,0.5,1.3,1.4,2.1,1.9 c0.4-0.5,0.4-0.8,1.1-0.8"></path> <path class="st5" d="M99,105.1c-0.6-0.9-1.3-1.7-2-2.5c1.6,0.5,3.9,0.4,5.5-0.5c-0.5,0.6-1.1,1.2-1.7,1.7 c-0.4,0.3-0.5,0.4-0.2,0.9c0.2,0.5,0.5,0.8,0.9,1.2c0.4,0.4,1.1,1.2,1.7,1.2c0.8,0,1.2-1.2,1.8-1.4c0.1,0.7-0.5,1.5-0.9,2 c-0.7,0.8-1.3,0.7-2,0.1c-0.7-0.6-1.3-1.4-2-2c-0.5-0.4-1.4-1.1-1.6-1.8c0,0.1,0.1,0.1,0.1,0.1"></path> <path class="st6" d="M9,101.8c-1.9,0.7-3.2,1.3-3.6,3.4c-0.2,0.9-0.2,2-0.1,3c0.1,1.4,0.7,2.5,2.2,2.9c1.4,0.5,3.1,0.6,4.6,0.2 c1-0.3,2.8-2,3.1-3c0,0.1,0,0.1,0,0.2"></path> <path class="st7" d="M35.6,90.2c-1.4-2.2-6.4-9.5-9.1-7c-2.2,2-3,5.6-5.9,6.9c-1.6,0.7-2.7,0.7-3.6,2.4c-0.7,1.4-0.8,2.6-2,3.7 c-1.2,1.1-2.5,1.5-3.5,2.8c-1,1.3-1.6,2.1-3.2,2.8c-0.6,0.3-1,0.6-1.7,0.7c1.7,3.3,3.3,7.1,6.3,9.5c2.5-3.4,6.3-5.5,9.3-8.4 c1.9-1.8,5.1-3.1,6.5-5.2c0.8-1.2,0.3-2.3,1.7-3c1.5-0.7,1.7-0.6,2.8-2c0.8-1,2.2-1.6,2.2-2.8c0-0.7-1.5-3.2-2-3.5 c-0.4-0.2-0.1,0-0.5,0"></path> <path class="st5" d="M25.4,95.8c0-0.6,0.5-1.5,0.6-2.1c0.1-0.5,0.2-1,0.2-1.5c0.1-0.7-0.1-1.8-0.5-2.3c-0.1,1-0.7,2.1-0.9,3.1 c-0.2,1-0.4,1.8-0.8,2.7c-0.4,1-1.1,1.7-1.6,2.7c-0.5,1-1.4,1.7-2,2.6c1.9-1.3,3.7-3.1,5-5c0.7-1,1.4-1.8,1.5-3.1 c0.1-1.1,0-2.2-0.4-3.2c0-0.1-0.1-0.3-0.1-0.4c0.1,0.7-0.2,1.3-0.3,1.9c-0.1,0.6,0,1.2-0.2,1.8c0-0.1,0-0.1,0-0.2"></path> <path class="st5" d="M15,107.7c1,0.6,0.8,0.9,0.1,1.7c-0.4,0.5-1,1-1.4,1.2c0.5-1.7-1-3.8-2.8-4c0-0.4,0.3-1,0.7-1.2 c0-0.1,0-0.1,0-0.2c0.4,0.4,4.4,2.2,3.9,2.9"></path> <path class="st3" d="M16.2,108.8c-1.4-1.4-2.9-2.6-4.6-3.7"></path> <path class="st8" d="M18.1,116.8c-0.1,0-0.1,0-0.1,0.1"></path> <path class="st4" d="M32.8,88.7c0.8,1.2,1,2.7-0.5,3.5c-1.5,0.8-2.6,1.9-3.9,3c-1.1,0.9-2,1.9-3,2.9c-0.5,0.6-1,1.1-1.8,1.4 c-0.7,0.3-1.6,0.4-2.2,0.8c0.1-0.4,0.7-0.6,1-0.8c0.4-0.4,0.6-0.9,0.9-1.3c0.6-0.7,1.2-1.3,1.8-2c1.1-1.5,1.8-3.9,1.4-5.8 c0.9,0.7,1.1,1.9,1.8,2.6c0.6-1.1,0.3-3.3,0-4.5c-0.2-1.1-0.9-2.5-2-2.8c0.3-0.5,0.5-1.6,1-1.9c0.7-0.4,2.4,1.3,2.8,1.7 c1.2,1.2,3.5,3.1,3.3,4.9"></path> <path class="st4" d="M20.9,103c0.8-1.2,1.5-2,2.4-3.1c-2,0.7-4.8,0.4-6.6-0.6c0.6,0.7,1.3,1.5,2,2.1c0.5,0.4,0.6,0.5,0.3,1.1 c-0.2,0.6-0.6,1-1.1,1.4c-0.5,0.5-1.3,1.5-2.1,1.4c-1,0-1.4-1.4-2.1-1.7c-0.1,0.9,0.6,1.9,1.1,2.5c0.8,0.9,1.5,0.9,2.5,0.1 c0.9-0.7,1.6-1.7,2.4-2.4c0.6-0.5,1.7-1.4,1.9-2.2c0,0.1-0.1,0.1-0.2,0.2"></path> <path class="st4" d="M20.9,92.1c-1.4-0.8-2.2-0.6-2.9,0.9c-0.5,1-0.7,2-1.2,2.9c-0.5,0.9-1.5,1.2-2,2c-0.5,0.8,0.1,2.1,0.3,3 c0-0.9,1.3-1.9,1.8-2.6c0.8-1,1.8-1.7,2.7-2.6c0.9-0.8,1.6-1.4,2.1-2.5c0.4-0.8,0.9-1.8,1.4-2.5c-0.8,0.5-1.3,1.4-2.1,1.9 c-0.4-0.5-0.4-0.8-1.1-0.8"></path> <path class="st5" d="M20,102.7c0.6-0.9,1.3-1.7,2-2.5c-1.6,0.5-3.9,0.4-5.5-0.5c0.5,0.6,1.1,1.2,1.7,1.7c0.4,0.3,0.5,0.4,0.2,0.9 c-0.2,0.5-0.5,0.8-0.9,1.2c-0.4,0.4-1.1,1.2-1.7,1.2c-0.8,0-1.2-1.2-1.8-1.4c-0.1,0.7,0.5,1.5,0.9,2c0.7,0.8,1.3,0.7,2,0.1 c0.7-0.6,1.3-1.4,2-2c0.5-0.4,1.4-1.1,1.6-1.8c0,0.1-0.1,0.1-0.1,0.1"></path> </g> <g> <path class="st7" d="M32.1,85.1c3.5-4.7,14-2.8,20.3-3.3c7.8-0.5,15.6-1.3,23.5-1c4.4,0.2,8.8,0.8,13,2.1 c5.3,1.6,8.2,4.9,7.1,10.5c-1.2,6.5-4.8,12.9-7.8,18.7c-2.6,5.1-5.3,10.8-9.8,14.5c-3.9,3.2-8.9,4.3-13.8,4.8 c-5.9,0.6-12.3,0.7-17.5-2.6c-3.9-2.5-6.5-6.5-8.9-10.3c-5-7.8-12.9-17.9-11.5-27.8c0.7-5.3,6.5-9.4,11.8-8.2"></path> <path class="st4" d="M37.3,82.9c-0.6,0.1-2.4,0.3-2.1,1.3c0.3,1,2.6,1.6,3.5,2c3.3,1.5,6.3,3.2,9.2,5.4c3.1,2.3,6.6,4.9,10.7,4.8 c2.5-0.1,3.9-2.1,6-3.2c1.4-0.7,2.7-1.7,4.2-2.4c1.7-0.8,3.7-1.1,5.5-1.6c3.6-1,7.2-1.7,10.9-2.5c1.1-0.3,6.2-1.1,4.6-3.3 c-0.6-0.8-2-1.1-2.9-1.4c-3.9-1.1-8.2-1-12.3-0.9c-4.2,0.1-8.4,0.5-12.6,0.5c-4.2,0-8.4,0.9-12.6,1c-2.3,0-4.6-0.5-6.9-0.5 c-2.2-0.1-5,0.4-6.9,1.6"></path> <path class="st9" d="M62.5,95.5c-0.8,0.2-1.4,0.6-1.8,1.2c0.6,0.3,1.3,1.2,1.9,1.4c0.4,0.1,1.5-0.4,2-0.6c2.2-0.8,4.3-1.2,6.6-1.5 c1.5-0.2,3.1,0.1,4.7-0.1c1.7-0.2,3.6-0.4,5.2-0.9c1.9-0.6,3.2-1.7,4.7-3c0.6-0.5,1-1.1,1.7-1.5c0.8-0.6,1.7-1,2.4-1.6 c0.7-0.7,2.5-2.8,1.8-3.8c-0.5-0.7-1.4,0-1.9,0.3c-1.1,0.6-2.2,1-3.3,1.4c-3.5,1.3-7.2,2.8-11,3.2c-1,0.1-2,0.2-3,0.5 c-1.5,0.4-2.8,1.3-4.3,1.9c-2,0.7-3.9,1.4-5.5,2.8c-0.5,0.5-1.1,0.8-1.4,1.4"></path> <path class="st9" d="M32.4,86.4c-3.2,1.7,4.5,7.1,6.2,8.1c1.6,0.9,3.2,1.8,5,2.4c1.3,0.5,2.8,1.1,4.3,1.3c1.7,0.2,3,0.2,4.6-0.3 c0.8-0.3,3.3-0.4,3.2-1.2c-0.5-0.3-1-0.9-1.6-1.1c-0.6-0.2-1.3-0.3-1.9-0.5c-1.5-0.5-2.6-1.3-3.9-2c-2.5-1.3-4.8-2.9-7.1-4.4 c-1.7-1.1-3.5-2.1-5.3-3.2c-0.8-0.5-1.4-0.6-2.4-0.2c-0.8,0.4-1.6,1.2-1.7,2.1"></path> <path class="st4" d="M60.7,110.9c1.3,1.4,1.6,3.8,1.7,5.6c-0.7-1.3-2.4-2.1-3.7-2.6c-2.3-0.9-4.2-2.2-6.3-3.4 c-3.7-2.2-7.5-3.9-11.6-5.4c-2.1-0.8-5.4-1.6-6.2-3.8c-0.6-1.7-0.3-3.2-2-4.4c-1.3-0.9-2.5-1.8-3.6-2.8c-1.5-1.3-1.5-2.5-1.6-4.3 c-0.1-3.2,2.9-5.4,5.4-7c0.2,1.9-1.7,3.7-1.5,5.7c0.1,1,1,1.5,1.7,2.1c0.9,0.8,1.9,1.9,2.7,2.8c1.3,1.6,1.7,3.9,3.2,5.2 c1.8,1.6,4.4,2.5,6.7,3.4c1.1,0.4,1.9,1.1,2.9,1.6c1,0.5,2.1,0.8,3.1,1.3c1.8,0.8,3.6,1.6,5.3,2.5c1.3,0.7,2.5,1.6,3.6,2.4 c1.1,0.9,1.1,1.8,1.2,3.1"></path> <path class="st1" d="M94.8,92.3c0.4-0.9,1.3-2.4,0.7-3.3c-0.6,1-1.3,1.8-2.2,2.6c-0.9,0.8-1.9,1.4-2.9,2c-2.6,1.6-4.4,3.9-6.7,5.7 c-1.4,1-2.7,2-4.4,2.3c-1.6,0.3-2.9-0.5-4.5-0.5c-1.6,0-3,0.6-4.5,1c-1.3,0.3-2.5,0.6-3.8,1c-1.3,0.4-3,1.2-4,2.1 c-1.1,1-1.9,2.4-2.3,3.8c-0.2,0.6-0.2,1.1-0.1,1.7c0.1,0.3,0.9,1.9,0.9,1.9c0.4-0.9,0.4-1.9,0.9-2.8c0.5-0.9,1.3-1.8,2.1-2.4 c0.7-0.5,1.6-1.1,2.4-1.4c0.8-0.3,1.9,0.4,2.6-0.1c-0.1-0.4-0.6-0.7-0.8-1.1c1-0.7,1.7-1.5,3-1.6c1-0.1,1.8,0.3,2.7,0.5 c1.2,0.2,2.5,0.2,3.7,0.2c1.1,0,1.9-0.6,3-0.9c1.8-0.6,3.6-1.1,4.8-2.7c0.7-0.8,0.9-1.8,1.6-2.6c0.5-0.5,1.1-0.9,1.8-1.2 c1-0.4,2-0.9,2.6-1.8c0.1,0.4,0.3,0.8,0.1,1.2C92.9,95.2,94.2,93.6,94.8,92.3z"></path> <path class="st10" d="M63.1,97.1c-0.4,0.1-0.7,0.3-1.1,0.3c0.1,0.6,1.5,1.1,1.4,1.9c-0.1,0.3-0.8,0.9-1,1.3 c-0.3,0.5-0.6,1.5-0.5,2.1c0.2,0.8,1,1.1,0.9,2c1-1.7,3.9-2.2,5.7-2.3c1.7-0.2,3.2-0.2,4.8-0.8c3.2-1,6.7,0.1,9.6-1.9 c1.6-1.1,2.7-2.6,3.8-4.1c0.5-0.7,0.7-0.9,0.1-1.6c-0.5-0.6-1.1-1.2-1.8-1.1c-1,0.2-1.9,1-3,1.2c-1.1,0.3-2.2,0.7-3.4,0.9 c-1.4,0.3-2.7,0.8-4.1,0.9c-1.2,0.1-2.4-0.3-3.6-0.2c-1.8,0.1-3.6,0.6-5.2,1.2c-0.6,0.2-1.2,0.6-1.9,0.7c-0.6,0.1-1.1-0.1-1.8,0"></path> <path class="st4" d="M60.9,113.9c1.6-1.6,2.6-3.2,4.9-3.8c0,0.6-0.3,1.3-0.5,1.9c-0.4,1.5-0.8,3-1.2,4.6c-0.7,2.6-1,5.1-1,7.8 c0,2.5,0.4,4.6,1,7c-1.2-0.3-2.3,0.5-3.4,0.8c-0.6,0.2-1,0.2-1.3-0.2c-0.3-0.4-0.3-1.8-0.4-2.3c-0.3-2.8,0.2-6,0.7-8.8 c0.5-2.6,1.2-4.9,2.3-7.2"></path> <path class="st3" d="M30.1,104.6c1,3.2,6.2,3.9,8.9,5.2c3.2,1.5,6.5,3,9.7,4.6c3.8,1.8,7.7,3.8,11.6,5.3c-0.1-0.2-0.2-0.3-0.3-0.5 "></path> <path class="st10" d="M38.2,95.4c0.1,2.1,1.5,3.8,3.1,5.1c1.6,1.3,3.1,1.5,5,2c2.7,0.8,5.2,2.1,7.4,3.9c0.2-1.5,0.7-2.9,0.2-4.3 c-0.4-1.1-1.4-2.6-0.5-3.8c-0.5-0.1-1,0.1-1.6,0c-0.7-0.1-1.4-0.4-2.1-0.6c-1.8-0.4-3.5-1-5.4-1.2c-1.3-0.1-2.4-0.6-3.7-0.9 c-0.7-0.2-2.2-1.2-2.8-1c0.1,1.2-0.1,2.7,0.5,3.8c0.5,0.9,2,2.1,3.1,2.3"></path> <path class="st11" d="M55,102.2c0,1.9-0.4,3.2-0.8,4.9c1,0.4,2.1,0.4,3,1.1c0.8,0.6,2.2,0.9,2.6,1.7c0.5-2.2,1.5-3.8,2.7-5.7 c-0.8-1.7-1.9-1.8-3.5-1.8c-1.4,0-2.6-0.4-3.9,0.4c0.1,0.3,0,0.7-0.1,0.9c0,0,0.2-0.3,0.2-0.4"></path> <path class="st3" d="M60.6,116c-0.5-3.7,6.3-8,9.4-8.7c3.4-0.7,6.9-1.1,10.3-1.7c1.6-0.3,2.9-0.5,4.2-1.4c1.5-1.1,2.1-2.9,3.6-4 c2.2-1.8,5.6-2.5,7.1-5.2c0.2-0.4,0.3-0.8,0.4-1.2c-0.4-0.2-0.1,0.1-0.3,0.2"></path> <path class="st3" d="M54.5,102.2c0.7,1.3-0.4,3.2-0.5,4.6"></path> <path class="st3" d="M61.4,102.5c0.3,0.7,0.7,1.2,1.2,1.7"></path> <path class="st12" d="M55.1,102.6c0.1,1.3-0.5,2.1-0.8,3.4c-0.3,1.1,0.7,1.3,1.6,1.8c1.6,0.8,3.1,1.3,4.3,2.7 c0.1-1.4-1.2-2.9-2.2-3.7c-0.7-0.5-1.4-0.6-1.3-1.5c0-0.4,0.4-1.4,0.7-1.7c0.5,0.2,1.1,0.4,1.6,0.7c0.1-0.4,0.2-0.8,0.4-1.1 c-0.8-0.1-1.3-0.6-2.1-0.5c-0.7,0-1.4,0.3-2,0.1c-0.1,0.5,0,1-0.2,1.5"></path> <path class="st3" d="M33,83.3c2.6,1.5,5.4,2.7,8,4.2c2.9,1.7,5.7,3.7,8.6,5.5c2.4,1.4,5.1,2.4,7.8,3.3c0,0.2-0.1,0.2-0.2,0.3"></path> <path class="st13" d="M61.4,97.7c1.4,0.4,2.9,0.6,4.3,1c1.2,0.3,2.4,0.9,3.7,1.2c1.4,0.3,2.7,0.1,4.1-0.3c3.6-0.9,6.4-3.3,9.8-4.5 c1.1-0.4,2.2-0.9,3.3-1.5c0.1,0.2,0.1,0.3,0,0.5"></path> <path class="st12" d="M54,97.7c-0.2,0.6-0.5,1.5-0.4,2.2c0.6,0,1.3-0.4,1.9-0.6c0.7-0.2,1.3-0.3,2-0.3c0.6,0,1.2,0.2,1.8,0.2 c0.6,0,1.1-0.2,1.7,0c-0.3,1.4-1.4,1.1-2.6,1.2c0.4,0,0.6,0.5,1,0.6c0.4,0.2,1,0.1,1.4,0.1c-0.1,0.9-1,0.8-1.7,0.6 c1.5,1.1,2.1,0.7,2.8-1c0.3-0.6,0.8-1.1,0.5-1.8c-0.3-0.7-1.3-1.1-1.9-1.5c-0.6-0.5-0.9-0.5-1.7-0.3c-0.7,0.2-1.3,0.3-2,0.5 c-1.2,0.2-3.6-0.3-3.2,1.6"></path> <g> <g> <path d="M61.6,113.6c-0.1-3,0-5.5,2.1-8c1.9-2.4,6.3-2.9,9.1-3.4c3-0.6,7.5-0.5,9.8-2.8c0.9-0.9,1.6-1.6,2-2.8 c1.2-3.5,3.4-4.5,6.1-6.3c2.1-1.4,2.6-3.6,2.4-6c-0.8,0.1-1.6,0.2-2.5,0.3c0.1,0.3,0.1,0.5,0.2,0.8c0.4,1.6,2.8,0.9,2.4-0.7 c-0.1-0.3-0.1-0.5-0.2-0.8c-0.4-1.3-2.6-1.1-2.5,0.3c0.3,4.4-5.2,5.3-7.3,8.5c-1.6,2.4-2.5,5.2-5.7,6.1 c-2.3,0.6-4.7,0.8-7.1,1.2c-7.9,1.5-11.7,5.6-11.5,13.6C59.1,115.2,61.6,115.2,61.6,113.6L61.6,113.6z"></path> </g> </g> <path class="st5" d="M87.3,110.2c2-2.2,3.4-4.9,4.8-7.5c-0.7,0.9-1.6,1.8-2.5,2.5c-1.5,1.1-3,2.5-4.8,2.9 c-2.1,0.5-4.5,1.1-6.5,0.2c0.8,0.5,1,1.5,1.7,2.1c0.6,0.6,1.9,1.4,2.8,1.1c-0.7,1.4-1.9,2.7-3.1,3.8c-1.1,1-2.3,1.6-3.6,2.2 c-0.6,0.3-1.8,0.5-2.3,1c0.3,0.5,1.5,0.5,2.1,0.6c0.8,0.1,1.4,0.3,2.3,0.1c1.5-0.3,2.3-1,3.4-2.3c1.3-1.4,2.3-2.9,3.5-4.3 c1-1.2,2.3-2.1,3.1-3.5c0.2-0.2,0.3-0.5,0.4-0.8c0,0.1,0,0.4,0,0.6"></path> <path class="st13" d="M53.6,97.7c-1.2,1.8-4.1,2-5.6,3.6c-1.3-1.6-3.7-2.6-5.3-3.8c-1.5-1.1-3.4-2.7-5.3-3.2c-0.2,0,0,0,0,0.1"></path> <path class="st11" d="M54.4,97.9c-0.3,0.6-1.2,2.1-1,2.8c0.1,0.6,1.3,1.7,1.9,2c1.6,1,4,0,5.6-0.2c1.1-0.1,1.2-0.6,1.7-1.6 c0.3-0.8,0.8-1.3,0.4-2.1c-0.7-1.2-3.2-2.7-4.7-2.4c-0.6,0.1-1.1,0.6-1.7,0.7c-0.8,0.2-1.5,0.4-2.2,0.9c-0.5,0.3-0.8,0.5-1,1.1 c-0.2,0.4,0.1,0.9-0.4,1.1"></path> <path class="st4" d="M89.6,110.5c0.8-2.8,1.6-6,3-8.6c-0.8,1.1-1.8,1.9-2.7,2.9c-1.7,2-3.1,4.1-5.1,5.8c-1.9,1.7-4.8,2.9-7.3,3 c1.7,1.2,4.8,0.2,6.5-0.5c-1.6,1.8-2.5,4.3-4.2,6.1c-1.1,1.2-2.1,1.9-3.6,2.4c-0.5,0.1-1.1,0.2-1.5,0.5c0.7-0.1,1.2,0.1,1.9,0.1 c0.9,0.1,1.8-0.3,2.7-0.4c1.6-0.3,3.7-1.5,4.8-2.9c2.2-2.7,3.7-6.4,5.1-9.6c0.4-1,0.7-2,1.1-3c0.6-1.5,1.8-3.2,2.5-4.4"></path> <path class="st5" d="M38.1,116.6c-2.1-2.2-3.6-4.9-5.1-7.4c0.8,0.9,1.7,1.7,2.7,2.4c1.6,1.1,3.2,2.4,5.2,2.8c2.3,0.5,5,1,7.2,0.1 c-0.9,0.5-1.1,1.5-1.9,2.2c-0.7,0.6-2.1,1.4-3.1,1.2c0.7,1.4,2.1,2.7,3.3,3.7c1.2,1,2.5,1.6,3.9,2.1c0.7,0.3,1.9,0.5,2.5,1 c-0.4,0.5-1.7,0.5-2.3,0.6c-0.9,0.2-1.5,0.3-2.5,0.2c-1.6-0.3-2.5-1-3.7-2.2c-1.3-1.4-2.4-2.9-3.7-4.3c-1.1-1.2-2.4-2.1-3.4-3.4 c-0.2-0.2-0.3-0.5-0.4-0.8c0,0.1,0,0.4,0,0.6"></path> <path class="st4" d="M36.1,115.5c-1.9-2.4-3.2-5.2-4.5-7.8c0.7,1,1.5,1.9,2.5,2.6c1.5,1.2,3,2.7,4.9,3.3c2.2,0.7,4.9,1.5,7.2,0.7 c-0.9,0.5-1.3,1.4-2.1,2c-0.7,0.6-2.2,1.2-3.2,0.9c0.6,1.5,1.8,2.9,2.9,4c1.1,1.1,2.3,1.8,3.7,2.5c0.7,0.3,1.9,0.6,2.4,1.2 c-0.4,0.5-1.7,0.4-2.3,0.4c-0.9,0.1-1.6,0.2-2.5-0.1c-1.6-0.4-2.5-1.2-3.5-2.5c-1.2-1.5-2.2-3.1-3.4-4.6c-1-1.3-2.3-2.3-3.1-3.7 c-0.1-0.3-0.3-0.5-0.4-0.8c0,0.1-0.1,0.4-0.1,0.6"></path> <path class="st5" d="M53.3,115.5c2.1,1.3,4.7,2,6.5,3.4c-0.1-0.4,0-0.8,0.1-1.2c-0.8-0.7-1.9-1.5-2.8-1.9c1,0.5,1.9,1.1,2.8,1.9 c0.4-0.4-0.1-1.7,0.1-2.3c-2.6,0-4.3-2.4-6.4-3.3c0.3,0.9,1.1,1.7,1.8,2.3c0.8,0.7,0.9,1.1,1.3,2c-2.5,0-4.4-2.5-6.3-3.8 c1.3,2.8,4.2,3.6,6.6,5.2"></path> <path class="st14" d="M40,82.2c-3.8,0.2-7.5,2.4-8.7,4.7c-0.9,1.8-0.5,2.3,1.3,3.7c1.3,1,2.8,1.9,4,3c1.3,1.2,0.9,2.1,1.1,3.6 c0.2,1.7,1.1,2.5,2.8,3.5c2.9,1.7,6.2,2.8,9.3,4.4c4.6,2.3,12,4.6,11,10c-0.3,1.6-0.1,3.3-0.4,4.9c-0.3,1.7-0.9,3.4-1.1,5.1 c-0.2,2.1,0.2,4.3-0.3,6.3c0.3,0.2,0.4,0.1,0.7,0"></path> <path class="st5" d="M28,97.8c0.5,2.5,1.6,7,3.9,8.4c1.1,0.7,2.7,1,4,1.2c1.2,0.2,2.7,0.9,3.8,0.9c-1.1-1-2.9-1.4-4.1-2.1 c-1.1-0.6-1.8-1.4-2.5-2.4c-1.2-1.7-2.4-3.4-3.2-5.4c0.9,0.2,1.5,0.5,2,1.2c0.6,0.7,1,1.7,1.6,2.2c-0.4-0.9-0.3-2.1-0.7-3.1 c-0.4-0.9-1.1-1.8-1.9-2.3c-0.7-0.5-1.5-0.9-2.3-1.4c-0.8-0.6-1-1.2-1.6-1.9c0.2,2.1,0.7,4.3,1.1,6.4c0.2,1.1,0.5,2,1,3 c0.2,0.5,0.5,0.9,0.8,1.3c0.2,0.3,0.4,0.6,0.6,0.9c0.1,0.3,0.2,0.7,0.3,0.5"></path> <path class="st5" d="M65.3,115.4c0.1-1.8,0.4-4.9,2.3-5.7c0.8-0.4,1.7-0.5,2.6-0.7c0.8-0.2,1.6-0.6,2.5-0.3 c-0.6,0.6-1.7,0.7-2.4,1.2c-0.9,0.7-1.8,1.7-2.5,2.7c-1.3,2-2.2,4.2-2.8,6.5c0.1-1.1,0-2.3,0.1-3.4c0.1-0.9,0.1-2.4,0.7-3.1"></path> <path class="st3" d="M52.8,97.3c2,0.4,4.2-0.4,6.1-0.6c1.2-0.1,1.4-0.1,2.1,0.4c0.7,0.5,1.5,1.5,2,2.2c-1.2,0.7-1,2.8-2,3.4 c-0.5,0.3-3.1-0.1-3.9-0.1c-1.8,0.1-2,0.3-3.1-1.2c-1.1-1.4-1.2-2.1-0.3-3.8c0.1,0.1,0.2,0.3,0.3,0.4"></path> <path class="st4" d="M87.1,93.1c-0.9,0.6-1.7,1.9-1.9,2.9c-0.1,0.7,0,1.5-0.3,2.2c0.5-0.6,0.8-1.1,1.4-1.6c0.9-0.7,1.8-1.3,2.7-2 c1.7-1.2,3.5-2.5,5-4c0.5-0.5,1.7-1.8,1.6-2.5c0-0.3-0.3-0.4-0.4-0.6c-0.1-0.2-0.2-0.5-0.3-0.7c-0.3-0.4-0.8-0.8-1.2-0.9 c-0.1,0.5,0.1,0.9,0,1.4c-0.2,0.6-0.7,1.2-1.1,1.7c-0.6,0.9-1.3,1.4-2.2,2.1c-0.9,0.6-1.8,1.2-2.7,1.8c-0.5,0.3-1.7,1.3-1.4,2"></path> <path class="st15" d="M70.6,101.5c-0.8,0.4-2.1,0.7-2.6,1.6c1.8-0.3,3.7,0,5.6-0.1c2.3-0.1,4.6-1,6.7-2.1c1.9-0.9,3.6-1.8,4.9-3.6 c1-1.4,1.3-3,2.7-4c1.8-1.3,4.4-2.6,5.5-4.6c0.3-0.5,0.8-1.5,0.6-2.1c-0.2-0.6-1.1-1.2-1.5-1.7c-0.4,0.3-0.4,1.5-0.6,2.1 c-0.4,1.1-1,1.7-1.9,2.5c-1.8,1.4-3.5,2.6-4.7,4.6c-1.1,1.7-1.9,3.9-3.9,4.9c-1.4,0.7-2.8,0.7-4.3,1.2c-1.2,0.4-2.9,0.9-4.3,1 c-1.1,0.1-2.9,0.5-3.6,1.3"></path> <path class="st15" d="M83.8,97.5c-0.4,0.3-4.9,2.9-3.7,4c0.4,0.4,1.7-0.2,2.1-0.4c1.1-0.5,2.5-1.5,3.2-2.5 c0.5-0.8,0.7-2.1-0.6-1.9C84,97,82.2,98.3,81.9,99"></path> <path class="st16" d="M63.1,123c-2.2-0.9-3.5,6,0.4,3.9c1.1-0.6,1.8-2.3,1.3-3.4c-0.6-1.3-1.3-0.8-2.3-0.7c-0.1,0,0.1,0,0.1-0.1"></path> <path class="st17" d="M61.6,125.2c-0.1,1,0.5,1.9,1.5,1.3c0.5-0.3,1.3-1.6,1.4-2.2c-0.2,0.3-0.6,0.7-0.9,0.9 c-0.3,0.3-0.6,0.7-1,0.7c-0.9,0.1-0.9-1.1-0.7-1.7c-0.3,0.5-0.6,1.3-0.4,2"></path> <path class="st18" d="M60.5,96.4c2.3-2.9,6.4-4.9,9.9-6.1c3.2-1.1,6.5-1.7,9.9-2.3c2-0.4,4.3-0.8,6.2-1.4c1.5-0.5,2.8-1,3.7-2.3 c-0.2,0.1-0.1,0.2-0.2,0.4"></path> <path class="st8" d="M31.4,87c-0.7,3.3,1.1,4.6,3.8,6.1c1.6,0.8,3.4,1.4,5,2.2c2.8,1.3,6.1,2.5,9.1,2.5c1.3,0,2.7-0.2,3.9-0.3 c1.1-0.2,2.5-0.3,3.6-0.7c-0.3-1.3-2.7-1.9-3.9-2.2c-1.5-0.4-2.9-0.7-4.2-1.4c-3.5-1.9-6.6-4.6-10.1-6.6c-0.9-0.5-1.6-1.1-2.4-1.6 c-0.4-0.3-1.1-1-1.7-1c-0.6,0-1.5,0.9-1.9,1.4c-1,1.2-1.5,3.2-0.8,4.7"></path> <path class="st19" d="M59.2,130.8c-0.3,0.2-0.8,2.5-0.8,2.9c1.5-0.4,3.2-0.8,4.8-1c2.5-0.4,5.5-0.6,7.9-1.5c2.1-0.8,4.7-2,6.3-3.5 c1.4-1.3,2.6-2.7,3.8-4.2"></path> <path class="st19" d="M41.7,123.9c1.4,1.7,2.2,3.7,3.1,5.7c0.6,1.4,1.7,2.3,3.2,2.8c1.7,0.5,3.6,0.5,5.4,0.7 c1.5,0.2,3,0.5,4.5,0.5c0.6-1.1,0.9-2.3,1.3-3.4c0.1,0.1,0.1,0.1,0.1,0.2"></path> <path class="st5" d="M72.9,104.8c-0.8-0.6-2.6-1.4-2.8,0.2c0.4,0.2,0.9,0.7,0.3,1.1c-0.1-0.1-0.2,0-0.3-0.1c0-0.2-0.2-0.3-0.2-0.5 c-0.3,0.7,0.1,1.3,0.9,1c0.8-0.3,1.2-0.9,2.2-0.8c0.9,0.1,1.5,0.4,2.4,0.1c0.8-0.2,1.7-0.5,2.4-1c-0.9,0.3-2.3,0.1-3.2,0.1 c-0.9,0-2.1-0.9-2.8-0.7"></path> <path class="st5" d="M91.2,94.4c-0.9,0.6-1.5,1.6-2.2,2.4c-0.5,0.6-1.4,1.2-1.7,1.9c1.1,0.4,1.8,0.2,2.8-0.5 c0.5-0.4,0.9-0.8,1.3-1.2c0.9-0.7,2.3-1.2,3-2c0.6-0.7-0.3-2.2-1.3-2c-0.3,0.1-1.3,0.8-1.6,1.1c-0.4,0.3-0.6,0.8-1,1.1 c-0.1,0-0.1-0.1-0.1-0.2"></path> <g> <path class="st20" d="M84.2,90.6c0-2.4,0.1-4.9,0.2-7.3c0,0.5,5.6,0.3,6.3,0.3c0.2-1.3-0.1-2.8,0.4-4c1.7,0,3.5,0,5.1,0.3 c0,0,0.6,4.5,0.6,4.9c0.4,1.8,0.8,3.7,1.1,5.5c0.3,2.6,0.5,4.8-2.6,5.2c-1.3,0.2-2.2,0.3-2.5-1.1c-0.4-1.5-0.3-3.1-1.3-4.4 c-2,0.4-8.3,1.4-7.3-1.9"></path> <path class="st21" d="M84.6,89c-0.4,1.1,0.8,1.2,1.6,1c0.1-1.2-0.2-2.8,0.2-4c0.1,0,0.3,0,0.2,0c0.2,0.4,0.3,1.1,0.2,1.6 c0.7,0,1.4,0.2,2.1,0.3c0.7,0.1,1.6,0,2.2,0.3c0-0.9,0.6-2,0.4-2.9c0,0,0,0,0,0c0.2,0.1,0.3,0.1,0.4,0.1c0-0.9,0.4-2,0.5-2.9 c0.3,0.1,0.6-0.2,0.9-0.3c-0.2,1.1,0.6,2.9,0.9,4.1c0.3,1.4,0.6,2.7,0.9,4c0.2,1.1,0.8,2.4,0.8,3.6c0,0.8-0.3,1.1-1.1,0.8 c-0.7-0.3-0.9-0.9-1-1.6c-0.4,1.2-0.8,1.4-0.1,2.6c1.1-0.3,3.2-0.7,3.7-1.9c0.6-1.4-0.1-3.1-0.3-4.5c-0.3-1.7-0.7-3.4-1.1-5.2 c-0.2-1,0-1.5,0-2.4c0-1-0.5-1-1.4-1.2c-1-0.2-2-0.5-3-0.7c-0.4,1.2-0.8,2.7-1,4c-1.7,0.3-3.5,0.2-5.2,0.6 c-1.3,0.3-1,4.2-0.9,5.5c0.1-0.1,0.2-0.1,0.3-0.2"></path> <path class="st22" d="M86,84.1c-1.2-0.7-1.2,0.6-1.3,1.4c-0.1,0.8-0.3,1.4,0.7,1.2c0-0.5,0.1-1.1,0.3-1.5 c0.4-0.7,0.8-0.3,1.5-0.4c0-0.2,0-0.5,0-0.7c-0.6,0-1.4-0.1-1.9,0"></path> <path class="st23" d="M94.9,94.2c-1-0.8-1.6-2.3-1.9-3.6c-0.2-1-0.1-2.2-0.4-3.1c-0.2,1-0.5,1.7-0.4,2.9c0.1,1,0.3,1.9,0.6,2.9 c0.2,0.9,0.5,2,1.4,2c0.7,0,2-0.4,2.6-0.8c-1.1,0.1-2-0.3-2.4-1.4"></path> <path class="st23" d="M91.8,80.2c-0.5,0.9-1.2,3.1-0.8,4.1c0.2-0.7,0.6-1.7,1.1-2.3c0.6-0.8,1.7-0.5,2.7-0.8 c0.5,2.1,1.3,4.7,0.9,6.9c0.1-0.5,0.6-1.4,1.1-1.6c0.1-1,0-2-0.1-3c0-0.6,0.3-2.6-0.2-3c-0.3-0.3-0.8,0-1.2,0 c-0.3,0-0.9-0.1-1.2-0.2c-0.9-0.3-1.6-0.4-2.4-0.6c0,0.6-0.1,1.1-0.2,1.7"></path> <path class="st20" d="M35.4,89.3c0-2.4-0.1-4.9-0.2-7.3c0,0.5-5.6,0.3-6.3,0.3c-0.2-1.3,0.1-2.8-0.4-4c-1.7,0-3.5,0-5.1,0.3 c0,0-0.6,4.5-0.6,4.9c-0.4,1.8-0.8,3.7-1.1,5.5c-0.3,2.6-0.5,4.8,2.6,5.2c1.3,0.2,2.2,0.3,2.5-1.1c0.4-1.5,0.3-3.1,1.3-4.4 c2,0.4,8.3,1.4,7.3-1.9"></path> <path class="st21" d="M34.9,87.6c0.4,1.1-0.8,1.2-1.6,1c-0.1-1.2,0.2-2.8-0.2-4c-0.1,0-0.3,0-0.2,0c-0.2,0.4-0.3,1.1-0.2,1.6 c-0.7,0-1.4,0.2-2.1,0.3c-0.7,0.1-1.6,0-2.2,0.3c0-0.9-0.6-2-0.4-2.9c0,0,0,0,0,0c-0.2,0.1-0.3,0.1-0.4,0.1c0-0.9-0.4-2-0.5-2.9 c-0.3,0.1-0.6-0.2-0.9-0.3c0.2,1.1-0.6,2.9-0.9,4.1c-0.3,1.4-0.6,2.7-0.9,4c-0.2,1.1-0.8,2.4-0.8,3.6c0,0.8,0.3,1.1,1.1,0.8 c0.7-0.3,0.9-0.9,1-1.6c0.4,1.2,0.8,1.4,0.1,2.6c-1.1-0.3-3.2-0.7-3.7-1.9c-0.6-1.4,0.1-3.1,0.3-4.5c0.3-1.7,0.7-3.4,1.1-5.2 c0.2-1,0-1.5,0-2.4c0-1,0.5-1,1.4-1.2c1-0.2,2-0.5,3-0.7c0.4,1.2,0.8,2.7,1,4c1.7,0.3,3.5,0.2,5.2,0.6c1.3,0.3,1,4.2,0.9,5.5 c-0.1-0.1-0.2-0.1-0.3-0.2"></path> <path class="st22" d="M33.5,82.7c1.2-0.7,1.2,0.6,1.3,1.4c0.1,0.8,0.3,1.4-0.7,1.2c0-0.5-0.1-1.1-0.3-1.5 c-0.4-0.7-0.8-0.3-1.5-0.4c0-0.2,0-0.5,0-0.7c0.6,0,1.4-0.1,1.9,0"></path> <path class="st23" d="M24.6,92.8c1-0.8,1.6-2.3,1.9-3.6c0.2-1,0.1-2.2,0.4-3.1c0.2,1,0.5,1.7,0.4,2.9c-0.1,1-0.3,1.9-0.6,2.9 c-0.2,0.9-0.5,2-1.4,2c-0.7,0-2-0.4-2.6-0.8c1.1,0.1,2-0.3,2.4-1.4"></path> <path class="st23" d="M27.7,78.8c0.5,0.9,1.2,3.1,0.8,4.1c-0.2-0.7-0.6-1.7-1.1-2.3c-0.6-0.8-1.7-0.5-2.7-0.8 c-0.5,2.1-1.3,4.7-0.9,6.9c-0.1-0.5-0.6-1.3-1.1-1.6c-0.1-1,0-2,0.1-3c0-0.6-0.3-2.6,0.2-3c0.3-0.3,0.8,0,1.2,0 c0.3,0,0.9-0.1,1.2-0.2c0.9-0.3,1.6-0.4,2.4-0.6c0,0.6,0.1,1.1,0.2,1.7"></path> <path class="st24" d="M14,24.9c4.8-4.1,5.8-10.4,11.5-13.9C29.9,8.2,35.8,7,41,6.6C47.9,6,54.9,6.4,61.7,5.8 C68.4,5.2,76,4.7,82.5,5.3c5.2,0.5,9,0.7,12.3,4.8c3.2,4.1,6.5,8.5,9.1,12.7c1.5,2.4,1.6,2.7,0.6,5.3c-0.8,2.3-1.8,4.3-2.9,6.5 c-2.4,4.5-6.1,6.3-1.4,10.4c1.5,1.3,3.5,2.6,4.5,4.3c-1.9,0.4-5.7,2-6.8,3.6c-1.3,1.8-0.2,4.9,0,7.1c0.5,4.2,0.6,9.8-1.7,13.5 c-0.9-0.8-5.2-2.8-6.5-2.3c-1.5,0.7-2,5.5-2.2,6.9c-0.5,4.3,0.4,8.3,0.5,12.5c0.1,2.5-0.7,3.3-2.4,5.4c-1.9,2.2-3,2.2-5.7,3.1 c-4.1,1.4-7.5,5.6-12,6.3c-2.6,0.4-6,0.5-8.7,0.2c-3.8-0.4-6.1,1.1-9.1-1.5c-3.3-2.9-9.4-8.6-14.4-7.2c-0.5-2.7-4.1-4.2-6.2-5.8 c4.3-4.6,4.7-13.9,2-19.3c-1.3,0.1-3.2-0.4-4.6,0c-1.8,0.5-2.4,2.1-4.6,1.7c0.6-1.9-0.5-4.3-0.6-6.3c-0.1-2.3-0.1-4.7,0.3-6.9 c0.6-3,2.4-3.8-0.3-6c-1.9-1.6-4.1-3.2-6.4-4.4c2-1.6,4.3-3.6,6.6-4.8c1-3-2.4-7.8-3.9-10.5c-1.8-3.3-3.6-6.4-4.9-9.7 c3.3-0.8,5.7-7.6,7.3-10.1c0.9-1.5,2.7-3.7,4.3-4.7c1-0.6,4.8-2.2,5.8-1.3"></path> <path class="st25" d="M16.8,25.5c4.5-3.9,5.5-9.8,10.8-13.2c4.1-2.6,9.7-3.8,14.6-4.1C48.7,7.7,55.3,8,61.7,7.5 C68,6.9,75.1,6.4,81.3,7c4.9,0.5,8.5,0.7,11.6,4.5c3.1,3.8,6.1,8,8.6,12c1.4,2.3,1.5,2.5,0.6,5c-0.8,2.1-1.7,4-2.8,6.1 c-2.2,4.3-5.7,6-1.3,9.8c1.4,1.2,3.3,2.5,4.3,4c-1.8,0.4-5.3,1.9-6.4,3.4c-1.2,1.7-0.2,4.6,0,6.7c0.4,4,0.6,9.2-1.6,12.7 c-0.9-0.8-4.9-2.7-6.1-2.1c-1.4,0.6-1.9,5.2-2,6.5c-0.5,4,0.4,7.8,0.5,11.8c0.1,2.3-0.6,3.1-2.3,5c-1.8,2.1-2.9,2.1-5.4,2.9 c-3.9,1.3-7.1,5.3-11.3,6c-2.5,0.4-5.7,0.5-8.2,0.2c-3.6-0.4-5.7,1.1-8.6-1.4c-3.1-2.7-8.9-8.1-13.6-6.8c-0.5-2.5-3.9-4-5.8-5.5 c4-4.3,4.5-13.1,1.9-18.2c-1.2,0.1-3-0.4-4.3,0c-1.7,0.5-2.2,2-4.3,1.6c0.5-1.8-0.4-4-0.6-6c-0.1-2.1-0.1-4.4,0.3-6.5 c0.6-2.8,2.2-3.6-0.3-5.7c-1.8-1.5-3.9-3-6-4.1c1.9-1.5,4.1-3.4,6.2-4.5c0.9-2.9-2.2-7.3-3.7-9.9c-1.7-3.1-3.4-6-4.6-9.1 c3.1-0.8,5.3-7.1,6.8-9.5c0.9-1.4,2.6-3.5,4-4.4c1-0.6,4.5-2.1,5.5-1.2"></path> <path class="st26" d="M53.2,99.4c-0.2,0.1-0.5,0.1-0.8,0.1c-0.3-0.5-0.7-0.8-0.8-1.3c1.1-0.2,2.2,0.6,3.4,0.6 c1-0.1,2.1-0.6,3.1-0.6c2.1,0,4.2,1.6,6.3,0.4c-0.2,2.2-4.2,2.6-5.8,2.6c-2.2,0-4.4-0.8-6.4-1.6c0,0.3,0.2,0.1,0.4,0.2"></path> <path class="st26" d="M44.4,30c-4.4-0.7-5.9,5.8-1.2,5c1.4-0.2,2.7-1.5,4-2c1.4-0.5,2.9-1.2,4.3-1.5c6.7-1.5,13.4,0,19.8,1.3 c0.9,0.2,1.7,0.3,2.5,0.5c1.2,0.3,1.6,0.9,2.6,1.6c-0.7-3.5-3.1-3.8-6.2-4.7c-3.7-1.1-7.8-1.3-11.6-1.8 c-5.9-0.8-12.7,0.3-17.8,2.8"></path> <path class="st26" d="M76.8,66.5c-1.5,1.8-2.6,3.2-2.4,5.7c1.1-0.2,2.1,0.3,3.3,0.3c0.1,2.8-1.3,5.3-1,8.2c0.3,3.2,1.9,5.4,3.7,8 c0.4-0.3,0.7,0.7,0.7,1.4c-0.1,1.1-1,2-1.9,2.5c-1.6,1-3.3,1.3-5,1.7c0.4,1.7-0.2,3.3,0,5c1.5-2.4,6.3-3.4,8.7-5 c2.6-1.8,4.1-4.9,4.2-7.9c0.1-2.8-1.4-5.6-1.2-8.3c0.1-1.4,0.9-2.9,1.2-4.2c0.1-0.6,1.3-3.4,1.2-3.7c0,0,0-0.1,0-0.1 c-1.5-1-12.3-5-12.4-2.2"></path> <path class="st27" d="M76.4,67.8C75,69.3,75,70.7,75,72.4c1.2-0.3,2.7-0.2,3.8,0.3c-1.6,1.3-2,5.9-1.7,7.8 c0.3,2.1,1.3,4.1,2.8,5.8c0.7,0.8,2,1.8,2.2,2.8c0.2,1.2-1.1,2.3-1.9,3.2c-0.9,0.9-2,1.5-3.1,2.1c-1.5,0.8-2,1.4-2.9,2.6 c-0.4,0.5-0.8,0.8-1.1,1.3c0.2-2-0.1-3.2,1.6-4.6c1.6-1.3,3.2-2.7,4.7-4c-0.5-1.2-1.7-2.3-2.3-3.5c-0.6-1.3-1.1-2.4-1.5-3.8 c-0.7-2.6,0-5.2,0.6-7.7c-0.8-0.1-2.2-0.4-2.7-1.1c-0.5-0.7,0-1.8,0.3-2.7c0.3-0.9,2.8-5,4-3.8c-0.8,0.7-2.2,1.2-2.6,2.2 c0.2,0,0.3,0,0.5-0.1"></path> <path class="st14" d="M24.7,71.6c3-0.4,5.3-2.4,8.4-2.8c3.5-0.5,8.8-0.5,12,0.8"></path> <path class="st27" d="M51,97c1.7,2.4,5.5,0.3,7.8,0.5c1.2,0.1,2.3,0.8,3.5,0.9c1.8,0.2,2.9-0.3,4.2-1.4c-2.2,1.1-4.8-0.7-7.1-0.5 c-2.2,0.1-4.7,1.9-6.5,0.3c1,0.7,2.4-0.1,3.5-0.3c-0.9-0.4-1.7-1.5-2-2.4c-0.5,1.1-2.5,2.7-3.8,2.6c0.7,0.9,1.9,1.2,3,1.3"></path> <path class="st14" d="M75.6,66.1c2.3,0.8,4.8,0.3,7.1,1.1c1.5,0.5,3,1,4.4,1.4c2,0.7,7.1,3.6,7.4,5.3"></path> <path class="st26" d="M34.5,79.2L34,82c0.3-0.8,0.5-1.9,0.6-3.1c0-0.2-0.1-0.4-0.2-0.5C34.3,78.7,34.4,78.9,34.5,79.2z"></path> <path class="st26" d="M39.5,91.3c-0.3-0.8-0.9-1.7-1.5-2.2c1.5-2.4,2.6-5.9,3.1-9.2c0-1.3,0.2-2.5,0.3-3.8c0-0.3,0-0.7,0-1 c0,0,0.1,0.1,0.1,0.1c0-0.2,0-0.4,0.1-0.6c0.1-1.7,0.1-3.4-0.1-5.1c-0.5-0.2-1.1-0.3-1.6-0.4c-1.7-0.4-6,1-7.2-0.3 c1.4,2.1,2.1,6.6,1.9,10.1c0.5,2.4-1.3,8.2-3.2,9.2c2.2,0.6,5.6,4,6.1,6.3c1.4-1,4.6,0.3,6,1.1c2,1.1,4,2.6,5.8,3.9 c0.2-0.1,0.5-0.6,0.6-0.7C48,95.4,43.3,90.5,39.5,91.3z"></path> <path class="st27" d="M78.2,57.8c-1.4,0.6-1.9,3.5-0.5,4.2c1.5,0.7,3.6-0.2,5.4,0.5c1.7,0.7,3.3,1.7,5,2.4 c1.5,0.7,2.5,1.5,3.8,2.3c-0.6-1.7,0.6-3.4,1.2-5c0.6-1.5,0.2-2.4,0.2-3.9c-0.2-2.8-1.5-5.1-2.6-7.6c1,0.7,2.4-0.2,3.5-0.5 c1.4-0.4,2.6-0.8,4-1.4c-1.3-1.1-2.7-2.8-3.7-4.2c-1.1-1.7-1.8-2.1-3.5-3.1c1,1.3,3.4,3.4,3,5.2c-0.5,2-3.5,1.1-5,1.2 c0.6,1.1,0.6,2.2,0.9,3.4c0.4,1.6,0.9,2.9,1.1,4.6c0.2,1.8,0.6,5.7-1.1,7c-2.1-3.7-7-6.5-10.6-4.1c0.1-1.4,1.1-2.7,2.2-3.6 c-1.6,1.5-4.4,2.9-4.1,5.6"></path> <path class="st2" d="M35.4,67.9c2,2.6,2.7,6.1,3,9.3c0.3,2.7-0.5,5.1-0.5,7.7c0.4,0,0.4-0.3,0.7-0.5"></path> <path class="st26" d="M39.9,20.6c-5.7-0.4-0.1,4.7,1,6.7c1.9-4.1,8.1-5.8,12.2-6.8c2.1-0.5,4.4-0.9,6.5-0.7 c0.9,0,1.7,0.1,2.5,0.4c0.7,0.2,1.4,0.9,2.1,0.9c-0.9,0-1.6,0.6-2.4,0.8c1.6,1.8,3.5,3.3,5.4,4.9c1.4-0.9,3.2-1.8,4.8-2.4 c1.1-0.4,4-0.4,3.9-1.5c-0.1-1-2.9-2.7-3.7-3.1c-1.3-0.7-2.6-1-4-1.4c-6.7-1.7-14.3-1.3-21,0c-1.5,0.3-9.3,0.4-9,2.4"></path> <path class="st2" d="M82.6,68.1c-3.1,4.4-4.4,11.8-2.5,17"></path> <path class="st27" d="M25.6,25.8c-2.4,2.6,0.1,5.8,0.3,8.9c0.1,2.5,0,5.7-1.1,7.8c0.6,0.2,1.3,0.8,1.9,1.1 c0.7,0.4,1.6,0.6,2.2,1.2c0.3-1.6,2.8-2.5,4-3.1c1.5-0.8,3.3-0.6,4.9-1.1c-1.3-0.8-3.6-0.7-5-0.5c-1,0.2-1.4,0.4-2.1-0.2 c-1-0.7-0.7-1.6-1.2-2.7c-0.4-1-0.8-2-1.2-3c-0.3-0.8-1.2-1.7-1.4-2.5c-0.5-1.8,1.4-3.5,1.6-5.2c0.9,2.3,1,5,1.1,7.4 c1,0,1.8,1.2,2.5,1.9c0.4-1-0.1-3.3-0.2-4.4c-0.1-1.1,0.1-2.5-0.1-3.5c-0.3-1.2-1.7-1.5-2.6-2.3c-1-0.7-1.4-1.3-1.7-2.4 c-1.1,0.9-3.1,4.5-3,6"></path> <path class="st2" d="M51.6,97.9c3.3,2,4.7-0.3,7.5,0c2.1,0.2,3.2,1.8,5.5,0.3"></path> <path class="st27" d="M39.4,40c-2.6,1.5-4.9,2.7-7.3,4.5c-1.6,1.3-3.8,2.3-4.4,4.5c-0.7,2.3,4.1,5.8,6.2,5 c-2.2,1.9-4.1,4.6-5.1,7.2c-0.6,1.5-1.7,4.6-1.1,6.1c1.1-2.6,5.6-2.7,8-2.8c2.6-0.1,5.3,0.1,7.7,0.5c-1.5-1.3-4.4-1.7-6.5-1.7 c-2-0.1-4.1,0.6-6,0.6c0.3-4.1,3.6-8.1,6.8-10.4c-2.4-1.3-7.1-2.1-5.7-5.6c0.9-2.2,3.2-3.7,4.9-5.1c1.3-1.1,3.4-2.9,5.1-3 c-0.8-0.6-4.3,0.9-5.1,1.6"></path> <path class="st26" d="M18.1,49.8c2.5-2.9,5.1-5.4,9-6.7c4.2-1.5,8.6-2.5,12.8-3.9c-3.1,2.2-6.3,4.3-9,6.9c-1.2,1.2-3.1,2-2.3,3.7 c0.7,1.5,3.5,3.6,5,4.4c-1.8,1.7-3.1,4.4-3.8,6.7c-0.5,1.7-1.6,5-0.9,6.8c1.6-2.1,7.4-2,10-2.2c3.8-0.3,7.6,0.7,11.2,1.5 c-0.8,0-1.4,1.1-1.7,1.8c-2-0.8-4.2-0.7-6.3-0.8c-2-0.1-3.8-0.6-5.8-0.4c-2,0.2-3.9,0.6-5.8,1.1c-2.1,0.5-3.6,1.8-5.7,2.3 c-1.8-3.6-1.2-9.1-0.2-12.8c0.2-0.8,0.6-1.8,0.6-2.5c0-0.9,0.3-0.5-0.2-1.3c-0.3-0.5-1.2-0.9-1.6-1.2c-1.7-1.5-3-2.8-5.2-3.6 c0.6-0.6,1.4-1.2,2.2-1.7"></path> <g> <g> <path d="M40.8,22.2c9.7-3.9,21-6.7,30.5-0.5c1.4,0.9,6.1-0.1,3.7-1.7c-11.5-7.6-25.7-4.8-37.5,0C34.8,21.2,39.3,22.8,40.8,22.2 L40.8,22.2z"></path> </g> </g> <g> <g> <path d="M42.2,31.2c9.5-4.9,22.9-2.3,32.2,1.6c0.8,0.3,3.4-0.8,2.3-1.3c-10.8-4.5-25.4-6.6-36.3-0.9 C38.8,31.5,41.4,31.7,42.2,31.2L42.2,31.2z"></path> </g> </g> <path class="st3" d="M23.2,70.1c3.7-2.9,8.7-5.1,13.5-5.1c1.8,0,3.6,0.6,5.3,0.1"></path> <path class="st26" d="M76,65.3c-0.1-0.7,0-3.2,0.3-3.8c0.5-1,0.6-0.7,1.5-1c1.5-0.5,3.1-0.5,4.6-0.2c3.9,0.9,6.3,3.1,9.4,5.4 c-0.1-3,1.3-5.8,1.2-8.8c-0.1-2.6-1.5-4.5-2-6.9c1.6,1,4.7-0.7,6.3-1.3c-0.8-2.8-4.3-6-6.4-8c2.2,0.7,4.7,2.1,6.6,3.4 c1.5,1,4,3,4.7,4.6c-1.7-0.7-5.1,2-5.9,3.4c-1.1,1.8-0.4,4.3,0,6.1c0.9,4.4,0.9,10.7-2.3,14.4c-0.7-2.4-3.3-2.9-5.2-4 c-1.8-1-3.8-1.7-5.8-2c-2.5-0.3-9,0.2-6.8-4.3"></path> <path class="st26" d="M21.2,18.9c-1.3,1.6-2.4,2.9-3.8,4.3c-1,1-1.9,1.6-1.7,3.1c0.3,2.5,3,4.8,4.1,7.1c1.2,2.5,2.5,4.9,3.7,7.4 c0.5,1.2,1.2,2.2,1.5,3.4c0.2,0.9,0.3,2.4,0.6,2.8c2.1-6.5-0.7-12-3.8-17.6c-0.8-1.5-0.8-1.7,0.2-2.9c1.1-1.4,2.3-2.9,3.2-4.4 c1.4-2.6,2.5-5.2,4.1-7.7c1.8,0.5,4.6-0.4,6.5-0.6c3.1-0.3,6.3-0.7,9.4-1.3c4.9-0.9,9.8-2.2,14.6-3.1c-0.5,1.6-2.1,3.6-3.8,4.2 c2.2-1.3,9.3-3.8,8.8-6.8C61.2,7.4,57.5,7.2,54,7.4C50.6,7.5,47.2,7.5,43.7,8c-3.1,0.5-6.1,0.8-9,1.3c-2.5,0.5-5.5,0.8-7.8,2 c-1.8,0.9-2.7,3.1-3.8,4.7c-1.2,1.7-2.4,3.3-3.4,5.1"></path> <path class="st26" d="M63.6,8.5c-0.9,0.8-2.2,1.6-2.2,2.9c3.6,0.1,7.2,0.5,10.7,0.8c1.4,0.1,3,0,4.4,0.2c1.2,0.2,2.3,0.9,3.5,1.1 c-0.1,0.1-0.3,0.3-0.4,0.4c1.4,0.3,3.2,1.3,4.5,2c1.4,0.7,3.3,1.2,4.6,2c0.6,0.4,1,0.9,1.6,1.4c0.6,0.4,1.4,0.7,2.1,1 c1.2,0.6,3.2,1.2,3.6,2.3c0.5,1.2-0.3,3.4-0.3,4.7c-0.1,2.2-0.3,4.3-0.6,6.4c-0.4,2.8-1.4,6.7-0.6,9.5c0.3,1.2,0.9,2.1,2.2,2.5 c-1.6-2.9,1.3-7.5,2.8-10c1.8-3,2.8-6.3,4.3-9.5c-1.8-2.5-3.7-5-5.6-7.5c-2.1-2.8-3.4-5.6-6.4-7.5C85.7,7.5,80,7.4,73.4,7.7 c-2.8,0.1-5.5-1.6-8.1-0.7c-1.7,0.6-4.3,3.8-4.9,5.6"></path> <path class="st26" d="M45.9,22c-0.4,1.2-1.3,2.6,0,2.9c0.4,0.1,2.5-0.5,2.8-0.7c2-1.1,2.7-3.6,5.2-4.1c-1.2,1.6-0.6,3.6-0.7,5.4 c2.6-1.9,5.1-4,7.8-5.9c-1.7-3.5-15.6-0.3-15.6,3.5"></path> <path class="st26" d="M69.5,6.5c-0.7,0.3-1.7,0.5-2,1.3c0.8,0.3,1.6,0.7,2.5,0.8c1.1,0.2,2.3,0.1,3.4,0.1c1.3,0,2.8-0.2,4.1-0.1 c2.2,0.3,4.4,0.7,6.6,1.1c1.5,0.3,2.8,0.4,4,1.4c0.7,0.5,1.6,1,2.3,1.4c1.2,0.6,2.2,0.9,3.2,1.9c0.5,0.5,1,0.7,1.5,1.2 c0.1-1.3-1.8-3.2-2.5-4.1c-1.2-1.4-2.2-2.3-3.8-3c-1.6-0.7-3.6-1.5-5.3-1.6c-1.9-0.1-3.7-0.2-5.6-0.2c-2,0-3.9-0.1-5.8,0.1 c-1.5,0.2-3.3,0.1-4.6,0.8"></path> <path class="st24" d="M39.5,95.8c0.4-2.7,3.2-5.6,5.2-7.4c2-1.8,4.1-3.5,6.8-4c-0.5,1.1-2.2,1.6-3.1,2.5c-1.4,1.2-2.6,2.6-3.7,4 c-1.3,1.6-2.7,3.4-2.7,5.5c-0.8-0.2-1.5-0.9-2.5-0.8c0.2-0.5,0.7-1.2,1-1.2"></path> <path class="st26" d="M43.7,95.6c0.6-1.1,1.1-2.2,1.6-3.2c0.4,1,1.2,1.9,1.6,2.9c0.3-0.9,1-1.8,1.1-2.6c0-0.7-0.3-2.1-0.5-2.8 c0.9,0.1,1.8,0.5,2.2,1.3c0.1-0.6,0.6-1.2,0.9-1.7c0.3-0.5,0.4-1,0.6-1.5c0.6-1.3,1.8-3,3.1-3.8c-0.8,0.2-1.6-0.2-2.4-0.1 c-1,0.1-1.5,0.6-2.3,1.1c-1.7,1.1-3.3,2.2-4.7,3.7c-0.9,1-2,2.1-2.5,3.4c-0.4,1-0.3,1.1,0.5,1.7c0.4,0.3,1.5,0.8,1.6,0.7"></path> <path d="M45.2,85.4c0.8-0.5,1.7-1.5,2.7-1.2c0.1,1.5,2.2,3,2.8,4.5c-0.7,0.2-1.2,0.9-1.8,1.2c-0.6-1-1.2-1.9-1.9-2.9 c-0.4-0.6-0.8-1.8-1.3-2.1"></path> <path class="st24" d="M42.2,88.4c0.4-2.5,2.3-0.7,3.2,0.5c0.9,1.2,1.4,2.4,1.8,3.8c0.1,0.1-0.1-0.1-0.1-0.1 c-0.2,0.3-0.6,0.4-0.8,0.6c-0.5-1.5-3.1-3.8-4.6-4.3c0.3-0.5,0.6-1.3,1.2-1.2"></path> <path class="st26" d="M96.4,21.3c-3.8,2.5-10.1,9.7-7.8,15c2.3-2,4-5,7-6.7c2-1.1,1.9-1.5,2.2-3.8c0.1-1.4,0.2-3,0.7-4.3 c0-0.1-0.1-0.1-0.2-0.1c-1.2,0.5-4.7,1.2-4.5,2.8"></path> <path d="M100.4,21.8c-3.3,1-6.2,2.8-8.4,5.6c-1.2,1.6-3.2,4.6-3.1,6.7c1.1-0.9,2-2.2,3-3.3c1.2-1.3,2.5-2,4-2.8 c1.4-0.8,2.8-1.4,4.2-1.9c1-0.4,1.8-0.1,2.6-0.4c-0.5-1.4-1.2-2.8-1.8-4.2c-0.8,0.4-1.7,0.7-2.5,1.2"></path> <path d="M91.1,23.1c0.6,2.1,2.9,12.9,6.6,8.3c-1.2-1.1-2.2-3.2-2.9-4.7C94,25,94.1,23.5,94,21.7c-0.9,0.3-2,0.7-2.8,1.1 c0.3,1.3,0.5,3,0.6,4.4"></path> <path d="M96.9,21.3c0,2.6,0.3,6.2,2.5,8c0.5-0.3,1-0.7,1.5-1c-1.1-2.5-2.3-4.4-2.5-7.2c-0.5,0-1,0.2-1.5,0.4 c0,0.9,0.1,1.8,0.4,2.6"></path> <path class="st27" d="M29.7,14.3c-2-2-4,1-4.8,2.7c-0.8,1.8-1.8,3.4-2.8,5c-1,1.5-2,3.2-1.7,5.1c0.3,1.7,2.1,3.7,3.2,5 c-1.6-2.5-0.2-6.2,1.2-8.6c1.2-2.2,2.6-5.5,4.4-7.3c0.9,0.7,2.1,0.6,3.1,1.1c-0.8,1.6-1.3,3.3-2.1,4.9c1.9-1.9,3.9-4.2,5.3-6.5 c0.3-0.4,1.3-1.8,1.2-2.4c-0.2-0.9-1.2-0.7-2-0.9c-1.3-0.3-3.4-0.8-4.6-0.4c-1.6,0.5-3.6,3.1-4.6,4.4"></path> <path d="M64,12.8c-2.8,2.4-6.3,3.9-8.3,7.2c-1,1.6-1.5,3.5-2.4,5.1c4-3.6,9.8-9.9,15.6-9.6c-0.9-0.8-2.4-2.2-3.6-2.1 c-1.9,0.1-4.2,1.9-5.7,3"></path> <path d="M52,14.1c-3.5,2.1-4.3,5.5-5.3,9.1c1.3-1.4,2.5-3.2,3.9-4.7c0.7-0.8,3.3-2.3,3.4-3.3c0.4-3.2-4.6-0.2-4.8,1.7"></path> <path class="st8" d="M92.2,86c-0.1,0-0.1,0-0.2,0"></path> <path class="st26" d="M37,58.1c-0.2,0-0.3-0.1-0.3-0.3c0.8-1.7,1.3-3.5,3.1-4.5c2.9,5.6,8.7,5.5,14.2,5.5 c-2.9,2.4-6.8,2.6-10.5,2.5c-1.6-0.1-3.1-0.5-4.5-1.2c-1.6-0.8-2.4-3.2-0.2-4"></path> <path class="st26" d="M67,57.8c2.9,0,4.2-1.6,6.7-3c1.7-1,2.9-2,4-3.7c1.1-1.8,3-5.2,2.2-7.3c3.1,1.2,4.7,2.5,8.3,1.8 c-2,2.3-0.7,7.6-0.4,10.5c-1.2-0.9-3.2-2.2-4.5-1.1c-0.7,0.6-0.9,1.7-1.9,2.3c-0.8,0.5-1.6,0.8-2.5,1.1c-1.8,0.7-3.7,1.2-5.7,1.1 c-1.8-0.1-3.1-1.2-4.8-1.3c0.3,0.1,0.6,0.2,0.9,0.3"></path> <g> <g> <g> <path d="M75.3,45c1.1,0.4,1.8,5.4,2,6.4c0.6,3.5,0.6,7,0.6,10.5c0,1,2.9,2.8,2.9,2.2c0-6.6,0.5-18.9-7.5-21.7 C72.3,42.1,74.5,44.7,75.3,45L75.3,45z"></path> </g> </g> <path class="st24" d="M66.2,54.7c4.9-3.1,9.7-5.8,15.3-7.7c3.7-1.2,8.1-2,7.1,3.6c-1.2,6.6-7.3,11-13.9,9.5 c-2.9-0.7-7.2-3.1-9.4-5.1c0.2-0.5,0.7-0.8,1.1-1.2"></path> <path class="st28" d="M68,54.4c4.3-2.6,8.5-4.9,13.3-6.4c3.2-1,7.1-1.7,6.2,3c-1,5.5-6.4,9.2-12.1,7.9c-2.6-0.6-6.3-2.6-8.3-4.2 c0.2-0.4,0.6-0.7,1-1"></path> <path class="st29" d="M70.4,54.1c3.5-2,7-3.7,11-4.9c2.7-0.8,5.8-1.3,5.1,2.3c-0.8,4.2-5.3,7-10,6c-2.1-0.4-5.1-2-6.8-3.2 c0.2-0.3,0.5-0.5,0.8-0.8"></path> <path class="st24" d="M57.5,54.6c-4.9-3.1-9.7-5.8-15.3-7.7c-3.7-1.2-8.1-2-7.1,3.6c1.2,6.6,7.3,11,13.9,9.5 c2.9-0.7,7.2-3.1,9.4-5.1c-0.2-0.5-0.7-0.8-1.1-1.2"></path> <path class="st28" d="M55.7,54.3c-4.3-2.6-8.5-4.9-13.3-6.4c-3.2-1-7.1-1.7-6.2,3c1,5.5,6.4,9.2,12.1,7.9 c2.6-0.6,6.3-2.6,8.3-4.2c-0.2-0.4-0.6-0.7-1-1"></path> <path class="st29" d="M53.3,54.1c-3.5-2-7-3.7-11-4.9c-2.7-0.8-5.8-1.3-5.1,2.3c0.8,4.2,5.3,7,10,6c2.1-0.4,5.1-2,6.8-3.2 c-0.2-0.3-0.5-0.5-0.8-0.8"></path> <path class="st24" d="M58.8,72.2c-0.8-1.3,2.2-2.3,3.8-2c2,0.3,3.1,1,3.1,2.3"></path> <path class="st3" d="M51.9,79.2c0.7-2.1,7.9-2.5,10-2.3c3,0.2,7.3,0.3,10,1.3"></path> <path class="st3" d="M53.7,75.5c1,1.1,2.5,1.8,3.3,3.2"></path> <path class="st3" d="M58.9,75.2c1.4,0.2,2.5,1.8,3.3,2.8"></path> <path class="st3" d="M63.9,75c1,0.7,1.7,2.2,2.3,3.2"></path> <path class="st3" d="M68.4,74.9c1.2,0.8,2.8,3.2,2.8,4.7"></path> </g> </g> </g> </g> </svg> 